<?xml version="1.0" standalone="no"?>
<!DOCTYPE svg PUBLIC "-//W3C//DTD SVG 20010904//EN"
 "http://www.w3.org/TR/2001/REC-SVG-20010904/DTD/svg10.dtd">
<svg version="1.0" xmlns="http://www.w3.org/2000/svg"
 width="3240.000000pt" height="3240.000000pt" viewBox="0 0 3240.000000 3240.000000"
 preserveAspectRatio="xMidYMid meet">

<g transform="translate(0.000000,3240.000000) scale(0.100000,-0.100000)"
fill="#000000" stroke="none">
<path d="M13065 24749 c-180 -23 -1219 -139 -1570 -176 -137 -14 -253 -30
-256 -35 -6 -9 -15 -100 -64 -603 -24 -247 -42 -416 -90 -815 -39 -328 -55
-481 -90 -860 -8 -91 -20 -201 -25 -245 -5 -44 -17 -154 -25 -245 -9 -91 -20
-203 -25 -250 -10 -80 -32 -301 -65 -645 -8 -82 -21 -206 -30 -275 -8 -69 -15
-142 -15 -162 0 -20 -5 -40 -11 -43 -6 -4 -155 138 -337 322 -180 180 -487
485 -682 676 -347 340 -470 469 -617 645 -251 301 -410 504 -738 947 -202 272
-277 365 -295 365 -23 0 -45 -105 -115 -530 -25 -152 -63 -373 -90 -525 -18
-102 -62 -355 -75 -430 -9 -51 -42 -230 -59 -320 -6 -27 -13 -71 -16 -96 -8
-52 -18 -73 -33 -68 -6 2 -77 68 -159 145 -149 143 -243 221 -243 205 0 -5 6
-12 13 -14 7 -4 6 -6 -4 -6 -23 -1 -37 18 -41 59 -3 31 -33 63 -288 303 -387
364 -908 883 -1130 1125 -108 118 -167 199 -212 290 l-31 62 -88 0 c-49 0
-254 -9 -456 -19 -202 -11 -501 -25 -663 -32 -162 -6 -300 -15 -306 -20 -9 -7
-7 -23 6 -62 25 -73 74 -224 191 -592 55 -176 119 -376 141 -445 59 -185 141
-450 173 -560 15 -53 89 -293 111 -365 15 -46 104 -344 159 -530 74 -248 129
-430 154 -510 16 -49 43 -139 61 -200 17 -60 36 -121 41 -135 5 -14 40 -131
78 -260 38 -129 95 -318 126 -420 31 -102 79 -259 106 -350 27 -91 63 -210 80
-265 16 -55 41 -136 54 -180 49 -160 117 -392 140 -470 12 -44 40 -136 60
-205 21 -69 44 -145 51 -170 21 -75 83 -278 119 -390 18 -58 70 -226 115 -375
82 -274 93 -309 220 -720 72 -232 100 -321 144 -463 14 -42 42 -135 64 -207
107 -349 126 -408 162 -520 40 -128 144 -457 162 -515 20 -67 37 -90 64 -90
38 0 165 -79 328 -203 77 -59 193 -146 256 -194 154 -116 568 -442 653 -515
53 -45 74 -57 90 -53 18 5 19 4 7 -5 -13 -9 -8 -17 30 -51 158 -140 292 -160
805 -124 116 9 285 20 376 25 91 5 171 10 179 12 14 3 21 -47 59 -397 52 -479
60 -550 71 -650 24 -205 88 -837 115 -1145 9 -96 23 -245 31 -330 8 -85 19
-209 24 -275 6 -66 12 -127 15 -135 2 -8 16 -132 30 -275 14 -143 32 -327 40
-410 8 -82 24 -253 35 -380 19 -217 40 -431 90 -900 14 -128 27 -213 38 -235
21 -44 54 -51 77 -16 36 54 50 48 237 -106 175 -144 666 -547 781 -641 48 -40
103 -79 122 -87 19 -8 35 -20 35 -26 0 -15 87 -56 176 -84 38 -12 143 -32 234
-46 139 -21 213 -25 471 -29 235 -4 309 -2 317 8 10 12 9 90 -23 1117 -21 703
-33 1149 -40 1464 -3 148 -9 274 -12 279 -4 6 -1 7 6 2 12 -7 111 -139 261
-346 41 -57 120 -165 176 -239 55 -74 186 -250 291 -390 263 -353 269 -360
298 -360 14 0 30 9 37 20 7 11 20 20 29 20 26 0 137 -109 368 -359 196 -212
254 -277 371 -409 34 -38 42 -42 84 -42 38 0 46 -3 46 -19 0 -13 14 -24 47
-36 30 -12 75 -44 119 -86 l71 -67 79 -6 c43 -3 129 -11 189 -16 61 -6 200
-20 310 -30 110 -11 216 -22 235 -25 23 -4 42 -1 55 9 23 17 21 -117 18 1406
-1 973 -2 900 7 900 3 0 47 -28 98 -63 73 -50 145 -118 365 -347 390 -406 503
-495 828 -654 52 -25 114 -57 139 -71 28 -16 60 -25 87 -25 33 0 41 -3 37 -14
-3 -8 3 -19 15 -26 36 -19 229 -73 386 -108 81 -18 370 -35 479 -29 250 16
495 97 740 244 136 82 186 119 306 223 62 54 279 298 319 357 14 22 62 93 105
159 106 158 134 222 138 305 3 63 5 68 35 89 40 27 76 21 107 -17 38 -48 306
-292 641 -584 72 -62 168 -151 214 -196 46 -46 89 -83 95 -83 6 0 28 4 49 9
31 8 37 6 37 -8 0 -27 101 -122 159 -149 47 -22 75 -26 210 -33 86 -4 206 -12
266 -19 141 -14 482 -26 652 -22 115 3 134 5 142 21 11 20 17 803 6 820 -3 6
-2 26 4 44 6 20 12 736 16 1982 8 2320 11 2615 22 2626 5 5 62 13 128 19 65 6
150 15 188 21 63 10 187 17 187 11 0 -1 -15 -57 -34 -125 -49 -177 -85 -339
-96 -442 -24 -220 -1 -1158 31 -1287 l10 -38 54 0 53 0 195 -207 c107 -115
234 -246 281 -293 97 -95 106 -115 49 -106 -21 3 -132 13 -248 21 -115 8 -257
19 -315 25 -58 5 -133 9 -166 10 -60 0 -62 -1 -74 -31 -11 -25 -11 -52 -2
-133 11 -99 31 -409 53 -831 6 -115 15 -268 20 -339 5 -72 9 -159 9 -193 0
-64 0 -64 51 -115 50 -50 52 -51 83 -39 17 7 41 13 54 12 74 -3 547 -382 943
-756 219 -206 309 -285 328 -285 14 0 18 -5 14 -18 -3 -14 15 -37 64 -82 37
-34 78 -69 90 -77 27 -18 158 -43 228 -43 28 0 140 -9 249 -20 109 -12 206
-20 215 -19 9 2 48 -3 86 -9 275 -45 336 -50 353 -29 8 9 11 153 11 463 -1
667 -21 999 -64 1057 -8 12 -27 39 -41 61 -41 61 -105 126 -125 126 -11 0 -19
9 -21 23 -3 19 -8 22 -40 19 -32 -2 -38 1 -52 29 -17 34 -14 49 10 49 8 0 14
6 14 13 0 14 -156 183 -305 330 l-100 99 85 -6 c47 -4 157 -13 245 -21 88 -8
201 -15 250 -15 50 0 121 -7 159 -17 84 -20 101 -13 100 43 -1 60 -23 240 -39
327 -16 85 -13 178 10 322 8 50 17 158 19 240 3 125 8 163 29 230 14 44 31
112 37 152 17 107 43 150 122 203 36 25 117 84 180 131 158 121 510 363 578
399 75 38 248 153 339 224 57 45 124 96 149 115 171 127 322 295 475 529 84
128 119 197 147 292 12 41 30 102 40 135 37 121 49 183 66 340 21 188 23 458
5 600 -22 178 -41 295 -55 338 -7 23 -30 96 -51 162 -84 272 -148 418 -271
622 -19 31 -34 63 -34 70 0 7 -4 13 -8 13 -4 0 -16 14 -25 30 -20 33 -44 39
-54 14 -4 -11 -12 -5 -28 25 -79 139 -381 504 -695 841 -69 74 -163 178 -210
230 -278 312 -530 568 -670 680 -208 166 -382 265 -560 320 -58 17 -123 38
-145 45 -65 21 -488 104 -593 116 -149 17 -429 15 -547 -5 -490 -82 -712 -154
-900 -293 -44 -32 -120 -88 -170 -123 -126 -89 -309 -237 -379 -306 -72 -73
-149 -167 -227 -282 -32 -48 -79 -116 -105 -152 -88 -126 -152 -277 -161 -385
-3 -33 -9 -66 -12 -73 -5 -9 -85 -13 -331 -17 l-325 -5 1 493 c1 270 5 609 9
752 l7 260 30 65 c16 36 40 88 53 115 42 91 76 168 137 310 33 77 73 169 90
205 56 121 98 218 98 229 0 6 15 43 34 83 41 87 126 284 126 291 0 3 23 53 50
111 28 58 50 108 50 111 0 5 78 182 105 240 8 17 31 68 51 115 20 47 61 141
91 210 30 69 77 177 104 240 27 63 59 135 71 160 43 94 71 155 103 229 18 42
54 122 79 179 25 56 46 110 46 120 0 9 6 29 14 43 7 14 16 38 20 54 4 15 22
60 40 99 50 107 63 139 71 166 13 46 57 155 76 188 19 34 25 78 11 98 -21 32
-215 98 -244 83 -13 -7 -15 -5 -11 10 4 15 -22 36 -124 104 -70 47 -153 107
-183 134 -30 27 -176 141 -325 252 -148 112 -275 209 -281 217 -6 7 -14 55
-18 106 -12 156 -21 217 -33 229 -8 8 -216 11 -763 10 -413 -1 -757 -4 -765
-7 -8 -3 -17 -16 -21 -27 -4 -12 -37 -94 -74 -182 -38 -88 -98 -236 -135 -330
-37 -93 -76 -188 -85 -210 -10 -22 -35 -80 -55 -130 -20 -49 -42 -103 -50
-120 -30 -67 -115 -273 -115 -279 0 -7 -62 -147 -82 -185 -7 -14 -18 -26 -24
-28 -18 -6 -181 154 -353 347 -86 96 -212 238 -282 315 -69 77 -170 194 -225
260 -157 190 -381 506 -413 583 -28 66 -56 42 -229 -196 -20 -28 -26 -31 -41
-20 -27 20 -439 464 -514 556 -38 46 -79 85 -93 88 -13 3 -61 1 -106 -5 -46
-6 -159 -15 -253 -21 -93 -6 -233 -15 -310 -20 -77 -6 -221 -15 -320 -20 -209
-13 -314 -25 -327 -38 -6 -6 -9 -567 -9 -1516 2 -1325 0 -1506 -13 -1506 -8 0
-17 4 -21 9 -3 5 -10 137 -15 293 -5 156 -17 459 -26 673 l-17 390 -54 63
c-30 34 -207 210 -392 390 -531 517 -610 596 -625 633 -8 19 -22 79 -31 134
-9 55 -21 107 -26 117 -13 25 -86 24 -268 -4 -163 -26 -263 -28 -334 -8 -36
10 -50 11 -56 2 -9 -16 -142 -45 -153 -34 -12 12 19 36 75 57 26 10 47 24 47
31 0 13 -62 65 -330 281 -144 116 -323 271 -348 302 -10 12 -13 62 -10 221 l3
205 -30 2 c-17 0 -97 -8 -180 -18z m28 -136 c4 -8 -4 -54 -68 -383 -39 -203
-80 -439 -120 -695 -19 -126 -44 -286 -56 -355 -11 -69 -24 -154 -30 -190 -15
-97 -35 -218 -63 -380 -14 -80 -39 -230 -56 -335 -18 -104 -38 -224 -46 -265
-8 -41 -19 -104 -24 -140 -6 -36 -17 -103 -25 -150 -18 -96 -67 -394 -90 -545
-9 -55 -20 -125 -25 -155 -5 -30 -21 -127 -35 -215 -14 -88 -32 -200 -40 -250
-23 -137 -63 -388 -80 -500 -9 -55 -20 -127 -25 -160 -5 -33 -17 -109 -25
-170 -9 -60 -25 -166 -36 -235 -10 -69 -28 -188 -39 -265 -11 -77 -34 -232
-50 -345 -28 -189 -48 -336 -85 -610 -7 -58 -21 -154 -30 -215 -9 -60 -20
-141 -25 -180 -5 -38 -23 -162 -40 -275 -17 -113 -35 -236 -40 -275 -5 -38
-16 -117 -24 -175 -8 -58 -25 -175 -36 -260 -12 -85 -28 -198 -36 -250 -8 -52
-19 -129 -25 -170 -5 -41 -18 -136 -29 -210 -10 -74 -29 -211 -40 -304 -12
-94 -25 -177 -30 -187 -5 -9 -26 -19 -47 -22 -34 -5 -302 -51 -453 -78 -48 -9
-329 -55 -535 -89 -38 -6 -94 -15 -124 -21 -29 -5 -57 -7 -61 -4 -5 3 -14 22
-21 43 -6 20 -24 64 -39 97 -15 33 -51 116 -80 185 -28 69 -62 148 -75 175
-44 96 -67 149 -80 184 -7 20 -22 59 -35 86 -39 88 -47 108 -101 240 -29 72
-67 162 -84 200 -18 39 -44 102 -60 140 -30 78 -48 120 -75 180 -10 22 -28 65
-40 95 -12 30 -26 64 -31 75 -4 11 -27 67 -50 125 -23 58 -58 148 -79 200 -22
52 -73 183 -115 290 -42 107 -86 215 -97 240 -11 25 -29 68 -38 96 -10 27 -30
76 -45 108 -24 50 -30 57 -52 54 -24 -3 -28 -11 -54 -118 -15 -63 -40 -169
-54 -235 -15 -66 -37 -163 -49 -215 -32 -130 -57 -244 -90 -395 -34 -157 -69
-315 -91 -405 -26 -103 -62 -255 -94 -390 -26 -110 -59 -250 -115 -485 -25
-104 -57 -237 -70 -295 -84 -358 -114 -485 -193 -815 -19 -81 -36 -105 -72
-105 -15 0 -85 -11 -156 -24 -72 -14 -200 -36 -285 -51 -85 -15 -218 -37 -295
-51 -77 -13 -176 -30 -220 -39 -220 -41 -356 -68 -418 -81 -37 -8 -72 -12 -77
-9 -5 3 -21 45 -35 93 -15 48 -30 101 -36 117 -5 17 -20 71 -35 120 -14 50
-37 122 -49 160 -42 127 -111 354 -187 610 -11 39 -38 126 -60 195 -22 69 -44
141 -50 160 -6 19 -16 53 -24 75 -7 22 -29 96 -49 165 -20 69 -42 143 -49 165
-18 52 -96 301 -136 435 -37 120 -62 201 -118 385 -22 72 -57 186 -76 255 -44
154 -66 227 -77 260 -14 43 -89 292 -106 350 -8 30 -19 66 -23 80 -10 30 -56
183 -77 260 -9 30 -25 80 -35 110 -11 30 -26 78 -34 105 -43 155 -58 207 -109
375 -31 102 -65 212 -75 245 -33 105 -131 429 -140 460 -5 17 -29 98 -54 180
-51 164 -64 209 -90 300 -10 33 -21 71 -26 85 -4 14 -19 63 -34 110 -14 47
-44 144 -65 215 -22 72 -47 157 -56 190 -8 33 -24 89 -36 125 -11 36 -26 88
-34 115 -8 28 -37 122 -64 210 -27 88 -73 239 -101 335 -29 96 -71 238 -95
315 -24 77 -64 208 -89 290 -50 163 -115 369 -151 480 -13 39 -36 111 -50 160
-15 50 -50 157 -77 240 -27 82 -47 155 -46 163 2 11 50 14 238 18 203 4 656
23 915 39 44 2 86 1 93 -3 7 -5 39 -87 73 -183 33 -96 67 -194 76 -219 8 -25
20 -54 26 -65 5 -11 14 -33 18 -50 4 -16 26 -82 49 -145 23 -63 48 -133 55
-155 7 -22 30 -85 50 -140 38 -104 285 -847 331 -995 15 -47 37 -114 50 -150
13 -36 24 -70 24 -75 0 -5 11 -39 23 -75 13 -36 36 -103 50 -150 105 -338 464
-1413 547 -1640 18 -47 35 -98 40 -115 4 -16 27 -82 50 -145 22 -63 47 -133
55 -155 7 -22 30 -85 50 -140 40 -109 62 -173 75 -220 5 -16 22 -70 39 -119
17 -49 38 -123 47 -165 21 -104 23 -110 44 -121 29 -15 48 11 55 77 4 32 16
117 26 188 11 72 24 159 29 195 5 36 20 142 35 235 14 94 34 235 45 315 18
129 28 196 61 390 17 101 38 233 64 395 14 88 30 185 35 215 6 30 20 114 31
185 11 72 27 171 35 220 8 50 19 117 24 150 5 33 16 96 24 140 9 44 21 114 27
155 6 41 13 78 15 82 2 3 11 46 19 95 8 48 21 120 30 158 13 67 45 241 80 445
9 52 21 115 26 140 5 25 20 113 35 195 14 83 32 186 40 230 28 154 34 191 59
350 43 268 56 330 68 314 32 -40 321 -478 393 -596 125 -204 116 -188 208
-350 82 -143 153 -264 216 -368 20 -33 44 -73 52 -90 17 -33 73 -132 88 -155
11 -17 128 -219 167 -290 14 -25 29 -49 33 -55 4 -5 31 -55 60 -110 30 -55 70
-127 90 -160 20 -33 48 -80 62 -105 14 -25 97 -173 185 -330 88 -157 166 -298
175 -315 8 -16 116 -212 240 -435 123 -223 242 -436 263 -475 20 -38 41 -74
45 -80 8 -11 73 -132 160 -299 83 -160 93 -176 111 -176 14 0 19 20 28 118 7
64 16 150 22 190 5 40 9 101 9 135 0 34 9 150 20 257 12 107 25 245 30 305 5
61 17 180 25 265 9 85 20 200 25 255 5 55 18 188 29 295 27 253 48 463 61 625
10 116 29 300 75 740 8 77 24 221 36 320 22 192 26 237 58 550 12 110 27 256
36 325 13 108 39 336 75 660 5 47 16 150 25 230 8 80 20 181 25 225 5 44 12
117 16 163 7 88 19 112 57 112 40 1 382 38 692 75 168 20 257 31 435 50 80 8
177 20 215 25 39 5 108 12 155 15 47 4 101 10 120 15 47 11 68 12 73 3z m48
-541 c-1 -59 -8 -165 -16 -237 -7 -71 -18 -188 -24 -260 -35 -395 -66 -715
-80 -800 -17 -102 -31 -204 -51 -370 -11 -88 -27 -209 -35 -270 -9 -60 -20
-139 -25 -175 -9 -66 -33 -227 -49 -335 -5 -33 -26 -172 -45 -310 -35 -247
-64 -443 -111 -745 -44 -284 -75 -493 -100 -680 -13 -102 -32 -237 -40 -300
-9 -63 -21 -149 -26 -190 -11 -80 -34 -237 -49 -335 -5 -33 -16 -109 -25 -170
-9 -60 -25 -164 -36 -230 -12 -66 -29 -178 -40 -250 -10 -71 -26 -175 -34
-230 -9 -55 -22 -145 -30 -200 -32 -228 -56 -404 -65 -475 -5 -41 -16 -127
-24 -190 -9 -63 -20 -155 -26 -205 -6 -49 -15 -119 -20 -155 -13 -93 -68 -501
-80 -590 -37 -296 -70 -536 -80 -595 -5 -27 -11 -78 -14 -113 -2 -35 -7 -66
-10 -70 -4 -3 -70 -16 -149 -28 -78 -12 -234 -38 -347 -57 -113 -20 -230 -38
-260 -42 -30 -4 -107 -15 -170 -26 -151 -26 -339 -36 -368 -20 -42 22 -26 38
46 44 37 3 114 15 172 26 58 11 222 41 365 67 143 26 294 53 335 60 41 8 98
17 125 21 28 3 55 10 61 15 13 10 59 303 139 893 15 105 35 251 46 325 12 74
24 162 29 195 11 80 47 336 66 460 8 55 19 129 24 165 6 36 17 108 25 160 8
52 21 154 30 225 9 72 20 157 25 190 5 33 20 143 34 245 14 102 42 300 62 440
20 140 40 284 45 320 5 36 15 110 24 165 8 55 22 147 30 205 9 58 22 146 30
195 8 50 26 164 40 255 31 204 42 274 60 370 22 114 56 317 65 390 5 36 18
119 29 185 19 112 65 402 74 470 3 17 34 203 70 415 83 487 116 683 167 995
23 138 47 284 55 325 7 41 18 109 25 150 6 41 17 113 25 160 7 47 19 123 25
170 11 76 18 126 50 335 19 126 21 137 27 131 4 -3 6 -55 4 -114z m4001 -137
c12 -124 17 -433 23 -1240 4 -434 8 -812 10 -840 2 -27 5 -1098 7 -2380 l3
-2330 -45 -6 c-223 -35 -325 -51 -380 -59 -103 -16 -428 -69 -514 -85 -44 -8
-83 -12 -86 -10 -4 2 -10 75 -14 162 -3 87 -11 237 -16 333 -9 178 -22 463
-40 915 -5 138 -15 441 -21 675 -7 252 -15 430 -21 437 -11 13 -20 13 -163 -8
-78 -11 -571 -75 -680 -88 -38 -5 -189 -23 -335 -41 -146 -17 -276 -37 -290
-44 -30 -14 -28 128 -17 -1121 8 -1021 16 -1491 23 -1517 7 -23 -27 -42 -101
-58 -33 -6 -71 -16 -85 -21 -14 -5 -86 -24 -160 -43 -74 -19 -189 -49 -255
-67 -66 -17 -136 -35 -155 -39 -19 -4 -71 -17 -115 -29 -44 -12 -118 -33 -165
-46 -47 -13 -101 -26 -121 -30 l-36 -7 -7 724 c-3 398 -10 993 -16 1323 -5
330 -12 866 -15 1190 -3 325 -8 674 -10 777 -3 103 -5 449 -6 770 -1 321 -4
635 -8 698 l-6 115 -30 3 c-64 6 -76 12 -73 35 2 17 13 24 43 30 61 13 70 21
69 56 -1 17 -2 56 -3 86 l-1 55 -44 -6 c-30 -4 -46 -2 -51 6 -9 14 23 43 40
37 5 -3 20 -7 31 -11 l22 -7 3 595 c3 379 8 599 14 605 6 5 48 14 95 19 47 5
216 30 375 55 285 45 654 97 686 97 15 0 17 -41 23 -407 4 -225 9 -453 11
-508 2 -55 7 -343 11 -640 4 -297 9 -704 13 -905 l6 -365 90 2 c79 3 314 23
910 79 88 8 201 17 250 20 147 8 153 10 159 47 3 18 8 685 11 1482 3 798 7
1466 8 1485 l2 35 170 12 c94 7 240 17 325 22 200 13 433 31 535 41 116 11
109 15 117 -65z m4263 -365 c3 -5 -1 -20 -9 -32 -8 -13 -47 -99 -86 -193 -40
-93 -80 -188 -90 -210 -21 -47 -66 -156 -235 -565 -70 -168 -133 -318 -140
-335 -14 -32 -50 -115 -111 -255 -20 -47 -47 -110 -59 -140 -13 -30 -73 -170
-135 -310 -61 -140 -130 -298 -152 -350 -38 -91 -134 -312 -162 -375 -36 -81
-72 -165 -137 -320 -39 -93 -92 -219 -119 -280 -98 -223 -88 -128 -95 -871 -4
-362 -8 -672 -9 -689 -2 -16 -4 -103 -4 -192 l-2 -161 -72 -12 c-40 -6 -107
-17 -148 -25 -41 -7 -111 -19 -155 -25 -44 -7 -118 -18 -165 -26 -242 -39
-403 -64 -475 -75 -44 -6 -93 -15 -109 -20 -17 -5 -33 -6 -37 -2 -12 14 -29
627 -34 1233 -3 420 -8 595 -16 620 -12 34 -234 477 -299 595 -33 60 -90 168
-247 470 -112 215 -399 797 -483 980 -18 39 -62 131 -97 205 -87 182 -165 378
-156 393 4 6 34 48 67 94 34 45 90 125 126 178 36 53 84 122 108 152 39 52
234 341 296 441 14 23 32 42 39 42 7 0 45 -57 85 -127 84 -146 73 -128 150
-253 32 -52 70 -115 84 -140 14 -25 57 -99 95 -165 90 -155 165 -290 243 -440
34 -66 79 -151 100 -190 21 -38 59 -110 85 -159 26 -49 68 -128 95 -175 26
-47 76 -142 112 -211 81 -156 115 -210 132 -210 21 0 41 31 61 95 10 33 49
143 88 245 64 170 93 245 225 580 24 63 96 239 159 390 63 151 128 309 145
350 33 84 44 109 82 193 14 32 26 60 26 64 0 17 83 208 93 215 18 12 1335 10
1342 -2z m40 -288 c-24 -114 -70 -267 -212 -707 -51 -156 -275 -746 -343 -900
-5 -11 -34 -85 -66 -165 -31 -80 -67 -167 -79 -195 -12 -27 -34 -77 -48 -110
-114 -266 -302 -706 -313 -730 -26 -59 -147 -342 -189 -443 -24 -57 -53 -114
-64 -126 -18 -19 -21 -35 -21 -107 0 -46 -5 -160 -11 -254 -6 -93 -14 -438
-18 -765 l-6 -594 -130 -17 c-71 -9 -185 -24 -252 -33 -68 -10 -135 -15 -150
-13 -22 3 -20 4 11 6 21 0 64 7 95 15 31 7 112 22 180 32 101 16 126 23 136
39 14 23 24 373 34 1250 6 537 7 551 28 595 28 59 118 255 153 335 9 22 27 62
39 89 12 27 31 70 41 96 10 26 28 67 39 91 31 66 256 588 311 719 26 63 60
142 75 175 15 33 71 164 125 290 54 127 151 354 215 505 65 151 154 365 200
475 45 110 95 229 111 265 17 36 50 114 74 174 24 59 46 103 48 97 2 -7 -4
-46 -13 -89z m-6731 -187 c52 -357 85 -813 107 -1495 6 -184 14 -411 18 -505
4 -93 4 -173 1 -177 -3 -3 -36 -8 -75 -10 l-70 -3 -7 85 c-3 47 -6 209 -7 360
0 151 -6 631 -12 1066 -11 749 -9 879 11 858 5 -5 20 -85 34 -179z m-8770
-232 c37 -65 71 -125 76 -133 81 -143 271 -564 375 -835 13 -33 42 -107 65
-165 86 -217 83 -207 232 -615 22 -60 51 -140 64 -177 13 -38 35 -99 49 -138
14 -38 36 -101 50 -140 14 -38 36 -100 49 -137 38 -107 167 -485 177 -518 23
-83 194 -579 243 -706 l56 -145 -15 -110 c-8 -60 -22 -160 -30 -223 -13 -106
-19 -131 -29 -120 -2 2 -17 45 -34 94 -17 50 -56 162 -87 250 -31 88 -89 259
-130 380 -41 121 -92 272 -115 335 -57 161 -269 798 -320 960 -24 74 -64 200
-90 280 -26 80 -64 199 -85 265 -20 66 -65 206 -100 310 -34 105 -88 267 -118
360 -53 161 -138 408 -276 805 -33 96 -65 183 -71 192 -10 17 -14 48 -6 48 1
0 33 -53 70 -117z m15676 -287 c0 -16 -19 -25 -37 -18 -23 8 -14 32 12 32 15
0 25 -6 25 -14z m30 -172 c0 -9 -5 -14 -12 -12 -18 6 -21 28 -4 28 9 0 16 -7
16 -16z m-8525 -74 c11 -17 -15 -40 -44 -40 -35 0 -55 15 -48 34 7 18 82 23
92 6z m4211 -100 c3 -14 9 -36 14 -50 64 -190 78 -306 85 -715 12 -741 15
-1105 21 -2741 6 -1688 6 -1732 -12 -1738 -11 -3 -71 -10 -134 -16 -210 -18
-413 -39 -580 -60 -366 -46 -411 -50 -427 -42 -10 6 -12 12 -5 16 10 6 293 53
537 90 61 10 164 26 230 36 66 11 144 22 172 26 29 4 58 13 64 21 10 11 11
623 6 2626 -6 2342 -5 2610 9 2592 8 -11 17 -31 20 -45z m1618 -124 c40 -77
45 -97 17 -72 -27 25 -83 134 -75 147 9 15 16 6 58 -75z m2637 14 c24 -20 24
-20 5 -35 -38 -29 -166 -14 -166 19 0 35 125 47 161 16z m-196 -110 c11 -18
-16 -40 -49 -40 -40 0 -61 14 -53 34 7 18 91 23 102 6z m-12227 -217 c141
-184 317 -448 530 -798 47 -77 96 -154 109 -171 12 -17 23 -34 23 -37 0 -3 33
-61 74 -129 40 -68 104 -177 141 -243 38 -66 96 -165 130 -220 33 -55 97 -163
140 -240 43 -77 113 -196 155 -265 42 -69 79 -132 83 -140 4 -8 29 -49 57 -90
94 -141 91 -131 78 -271 -6 -68 -14 -130 -17 -136 -4 -8 -30 30 -63 90 -48 88
-91 165 -208 372 -12 22 -41 74 -63 115 -22 41 -104 190 -182 330 -78 140
-164 296 -190 345 -26 50 -74 135 -105 190 -31 55 -81 145 -111 200 -66 122
-50 95 -190 333 -64 108 -141 242 -172 297 -30 55 -65 116 -76 135 -12 19 -24
42 -28 50 -6 13 -110 192 -133 230 -5 8 -26 47 -46 85 -20 39 -41 76 -46 83
-7 8 -7 12 0 12 6 0 55 -57 110 -127z m-2220 96 c-2 -6 -8 -10 -13 -10 -5 0
-11 4 -13 10 -2 6 4 11 13 11 9 0 15 -5 13 -11z m12122 -29 c0 -5 -2 -10 -4
-10 -3 0 -8 5 -11 10 -3 6 -1 10 4 10 6 0 11 -4 11 -10z m59 -81 c18 -52 13
-55 -19 -8 -35 51 -37 64 -11 50 10 -6 24 -25 30 -42z m2745 -49 c58 -22 13
-49 -71 -42 -48 4 -53 6 -53 28 0 22 4 24 49 24 27 0 61 -4 75 -10z m-4299
-36 c0 -5 -11 -23 -23 -39 l-24 -30 -25 29 c-27 32 -22 42 22 49 38 5 50 3 50
-9z m3549 0 c25 -10 19 -43 -9 -50 -31 -8 -92 3 -101 18 -16 26 64 50 110 32z
m53 -300 c4 -13 -51 -24 -68 -13 -8 4 -5 10 7 18 23 13 56 10 61 -5z m-8057
-35 c16 -30 5 -49 -29 -49 -28 0 -61 22 -61 40 0 8 44 28 67 29 7 1 17 -8 23
-20z m2504 6 c8 -21 -38 -39 -65 -25 -25 14 -24 19 4 30 34 13 54 12 61 -5z
m-26 -232 c5 -17 -26 -29 -40 -15 -6 6 -7 15 -3 22 9 14 37 9 43 -7z m5612
-103 c0 -13 -7 -20 -18 -20 -26 0 -34 11 -21 27 17 20 39 16 39 -7z m-11335
-80 c-3 -5 -10 -10 -16 -10 -5 0 -9 5 -9 10 0 6 7 10 16 10 8 0 12 -4 9 -10z
m11678 -365 c-3 -9 -8 -14 -10 -11 -3 3 -2 9 2 15 9 16 15 13 8 -4z m-3508
-19 c45 -33 -42 -62 -109 -36 -35 13 -33 28 7 39 47 14 81 13 102 -3z m113
-53 c-10 -2 -26 -2 -35 0 -10 3 -2 5 17 5 19 0 27 -2 18 -5z m-5018 -23 c0 -5
-7 -10 -15 -10 -8 0 -15 5 -15 10 0 6 7 10 15 10 8 0 15 -4 15 -10z m-5919
-39 c32 -20 32 -20 8 -24 -39 -8 -109 -5 -109 4 0 8 48 38 62 39 4 0 22 -9 39
-19z m14239 -36 c7 -9 8 -15 2 -15 -5 0 -12 7 -16 15 -3 8 -4 15 -2 15 2 0 9
-7 16 -15z m-7 -53 c-3 -12 -9 -19 -14 -16 -5 3 -3 14 3 24 15 24 19 21 11 -8z
m-153 -66 c0 -18 -16 -29 -30 -21 -13 8 -1 35 16 35 8 0 14 -6 14 -14z m-8136
-117 c-7 -11 -34 -12 -34 -1 0 14 11 21 26 15 8 -3 11 -9 8 -14z m4356 -149
c0 -5 -9 -10 -20 -10 -11 0 -20 5 -20 10 0 6 9 10 20 10 11 0 20 -4 20 -10z
m970 -30 c0 -5 -4 -10 -10 -10 -5 0 -10 5 -10 10 0 6 5 10 10 10 6 0 10 -4 10
-10z m-7885 -50 c0 -18 -52 -27 -67 -12 -17 17 2 33 35 30 20 -2 32 -8 32 -18z
m10559 -80 c14 -14 6 -18 -59 -25 -70 -7 -97 4 -75 30 23 28 52 34 90 18 19
-8 39 -18 44 -23z m-2605 -645 c7 -368 14 -796 16 -950 1 -154 3 -282 4 -284
1 -2 30 -1 66 2 63 6 65 5 85 -23 20 -29 223 -205 435 -380 57 -47 146 -110
199 -140 52 -30 98 -61 100 -68 10 -22 -33 -29 -309 -46 -148 -10 -346 -24
-440 -32 -198 -16 -278 -18 -271 -5 4 5 6 202 7 438 0 235 9 784 19 1218 24
960 24 875 5 875 -22 0 -19 40 3 40 9 1 28 7 42 15 14 7 26 13 26 12 1 -1 7
-303 13 -672z m-5622 623 c24 -19 2 -28 -68 -28 -72 0 -84 8 -46 35 23 17 90
13 114 -7z m8135 -100 c-9 -9 -15 -9 -24 0 -9 9 -7 12 12 12 19 0 21 -3 12
-12z m-13702 -68 c0 -5 -4 -10 -10 -10 -5 0 -10 5 -10 10 0 6 5 10 10 10 6 0
10 -4 10 -10z m10530 -25 c0 -10 -11 -15 -35 -15 -24 0 -35 5 -35 15 0 10 11
15 35 15 24 0 35 -5 35 -15z m337 -67 c-3 -8 -6 -5 -6 6 -1 11 2 17 5 13 3 -3
4 -12 1 -19z m2673 13 c0 -12 -37 -24 -50 -16 -20 12 -10 25 20 25 17 0 30 -4
30 -9z m6 -66 c16 -13 17 -16 4 -25 -24 -16 -100 -13 -100 5 0 32 62 46 96 20z
m-691 -55 c3 -5 -1 -10 -10 -10 -9 0 -13 5 -10 10 3 6 8 10 10 10 2 0 7 -4 10
-10z m-1980 -131 c4 -11 4 -36 1 -54 -6 -30 -9 -33 -34 -26 -29 8 -37 28 -28
66 5 20 17 29 48 34 4 0 10 -8 13 -20z m-2500 -4 c-22 -8 -134 -11 -123 -3 7
4 40 7 73 7 33 0 56 -2 50 -4z m-180 -25 c-11 -5 -40 -9 -65 -9 -25 -1 -61 -6
-81 -11 -52 -15 -336 -54 -479 -66 -41 -4 -86 -12 -98 -19 l-24 -12 1 -553 c1
-304 4 -556 6 -560 2 -3 5 -365 6 -805 1 -667 -1 -799 -12 -805 -8 -5 -39 -13
-69 -19 -30 -6 -86 -18 -125 -26 -173 -39 -994 -187 -1016 -183 -47 7 -4 26
152 65 92 23 197 50 235 61 87 25 238 64 374 96 242 58 285 69 309 79 l24 12
-6 615 c-21 1906 -21 2040 -6 2040 8 0 43 5 79 10 60 10 113 17 405 56 61 8
150 19 199 24 49 6 92 12 94 15 3 3 30 5 61 4 41 0 50 -3 36 -9z m5293 -17 c2
-9 -8 -13 -32 -13 -37 0 -49 15 -18 23 26 7 45 3 50 -10z m3227 -393 c342 -14
585 -54 870 -142 298 -92 641 -324 802 -542 167 -226 333 -632 402 -981 51
-256 66 -409 66 -665 0 -272 -19 -433 -76 -647 -99 -376 -279 -561 -1104
-1133 -164 -113 -365 -271 -539 -421 -114 -99 -239 -235 -302 -328 -64 -94
-143 -285 -165 -396 -48 -245 -51 -272 -44 -520 3 -132 11 -289 16 -349 5 -60
8 -111 5 -113 -2 -2 -203 -5 -447 -5 -434 -2 -673 6 -699 22 -21 13 -42 524
-37 900 4 276 7 328 26 420 44 210 85 352 170 590 16 47 39 118 51 159 17 57
31 84 65 120 24 26 48 58 53 72 21 55 171 249 257 332 49 48 126 124 170 169
126 130 464 460 525 513 148 128 300 279 384 379 149 177 176 235 176 384 0
263 -193 617 -407 745 -105 64 -285 95 -382 67 -19 -5 -52 -12 -74 -15 -45 -7
-177 -54 -239 -86 -62 -31 -135 -88 -199 -155 -100 -103 -259 -355 -311 -491
-9 -24 -22 -43 -30 -43 -7 0 -127 116 -267 257 -240 243 -254 260 -259 300 -2
23 -10 47 -16 51 -6 5 -108 14 -226 21 -118 6 -248 14 -289 17 l-74 6 5 62
c13 154 257 538 488 765 130 128 404 339 572 441 160 98 324 148 697 215 74
14 136 27 139 30 3 3 8 5 11 5 3 0 110 -5 236 -10z m-10887 -587 c-4 -20 -35
-30 -50 -15 -15 15 0 32 28 32 19 0 25 -5 22 -17z m-260 -35 c3 -15 -4 -18
-32 -18 -24 0 -36 5 -36 14 0 30 63 33 68 4z m3041 -317 c9 -24 51 -858 51
-1016 0 -42 5 -76 12 -83 7 -7 30 -12 52 -12 45 0 69 -17 281 -195 66 -55 237
-195 380 -310 143 -115 266 -215 273 -221 30 -30 11 -34 -171 -34 -427 0 -624
-68 -968 -332 -78 -60 -92 -67 -84 -45 21 59 34 947 20 1372 -5 165 -16 647
-19 854 l-4 225 84 -89 c45 -48 87 -100 93 -114z m3428 123 c-3 -3 -12 -4 -19
-1 -8 3 -5 6 6 6 11 1 17 -2 13 -5z m-290 -58 c-22 -17 -178 -32 -204 -20 -21
9 94 31 172 32 45 1 48 0 32 -12z m-9771 -53 c3 -10 9 -27 14 -38 4 -11 20
-53 34 -94 l26 -73 -25 -137 c-14 -75 -35 -183 -47 -241 -11 -58 -25 -127 -29
-155 -5 -27 -13 -70 -18 -95 -13 -65 -71 -399 -78 -440 -2 -19 -15 -91 -28
-160 -13 -69 -30 -163 -39 -210 -8 -47 -38 -202 -65 -345 -27 -143 -57 -303
-66 -355 -8 -52 -22 -133 -31 -180 -67 -378 -134 -781 -134 -807 0 -29 -4 -29
-220 -48 -369 -31 -416 -35 -440 -40 -44 -8 -427 -34 -761 -51 -257 -13 -331
-14 -348 -4 -40 21 -43 20 384 101 28 5 120 20 205 33 399 64 495 79 625 102
171 31 262 53 274 68 5 6 17 52 26 101 9 50 39 182 66 295 73 306 95 403 124
535 15 66 50 219 80 340 48 197 89 374 115 490 15 68 41 175 65 275 13 52 36
145 50 205 14 61 30 126 35 147 10 34 20 80 75 333 23 109 40 184 71 320 9 39
18 81 21 95 8 41 12 50 23 50 6 0 13 -8 16 -17z m5904 7 c13 -8 13 -10 -2 -10
-9 0 -20 5 -23 10 -8 13 5 13 25 0z m10908 -200 c82 -129 201 -405 246 -575
112 -423 138 -761 90 -1170 -30 -261 -60 -377 -140 -540 -75 -155 -97 -189
-178 -280 -39 -44 -84 -95 -99 -114 -16 -19 -44 -46 -62 -60 -19 -14 -110 -87
-202 -162 -182 -147 -245 -192 -628 -453 -60 -41 -146 -104 -190 -139 -120
-97 -333 -305 -406 -396 -115 -145 -209 -328 -239 -462 -17 -75 -13 -84 41
-84 32 0 44 -4 44 -15 0 -11 -12 -15 -50 -15 l-50 0 -7 -45 c-11 -72 -9 -489
3 -643 6 -78 11 -160 12 -182 l2 -40 -90 -3 c-49 -2 -187 2 -305 8 -118 6
-330 13 -470 16 -140 3 -265 7 -276 9 -21 5 -124 90 -124 103 0 4 235 5 521 4
323 -2 525 0 531 6 6 6 5 53 -2 128 -19 206 -26 522 -14 676 30 386 110 558
392 842 196 198 313 290 737 582 586 403 815 619 935 879 98 211 146 458 157
810 13 452 -56 886 -204 1265 -25 63 -47 122 -51 130 -11 30 40 -25 76 -80z
m-5748 0 c0 -5 -7 -10 -15 -10 -8 0 -15 5 -15 10 0 6 7 10 15 10 8 0 15 -4 15
-10z m-7631 -95 c11 -11 -12 -35 -32 -35 -32 0 -51 22 -34 39 10 10 54 8 66
-4z m6926 -5 c0 -18 -72 -27 -87 -12 -19 19 3 33 45 30 29 -2 42 -8 42 -18z
m-4332 -4 c11 -29 -42 -47 -87 -30 -19 7 -21 30 -3 37 27 11 85 7 90 -7z
m4107 -25 c0 -14 -15 -17 -65 -13 -25 2 -42 8 -39 13 7 12 104 12 104 0z m598
-47 c25 -7 29 -29 6 -38 -38 -14 -94 -3 -94 19 0 22 42 31 88 19z m4083 -200
c113 -34 227 -109 137 -90 -131 27 -196 14 -387 -81 -187 -92 -274 -174 -387
-365 -76 -129 -144 -322 -144 -412 0 -61 -15 -62 -58 -5 -22 30 -60 77 -86
104 -29 33 -45 59 -46 77 0 32 75 222 121 304 126 227 257 357 425 420 170 64
316 80 425 48z m-10911 -55 c0 -11 -7 -19 -16 -19 -11 0 -14 5 -10 16 3 9 6
20 6 25 0 6 5 7 10 4 6 -3 10 -15 10 -26z m2394 -49 c25 0 47 -4 50 -9 8 -13
-14 -19 -50 -14 -20 3 -36 -1 -47 -12 -16 -15 -17 -13 -16 32 0 39 2 44 9 26
8 -19 17 -23 54 -23z m6551 -49 l100 -6 7 -455 c4 -250 12 -583 18 -739 6
-156 7 -287 3 -291 -4 -4 -136 -12 -293 -19 -514 -21 -994 -52 -1009 -66 -11
-11 -14 -360 -18 -2212 -2 -1209 -5 -2434 -6 -2723 l-2 -525 -55 -7 c-80 -9
-669 -41 -991 -54 -114 -4 -178 -3 -182 3 -17 27 -43 652 -87 2048 -6 176 -17
532 -25 790 -17 536 -33 1275 -41 1860 -8 668 -9 674 -21 686 -13 13 -29 13
-283 -1 -194 -11 -316 -20 -685 -52 -137 -11 -279 -21 -315 -22 l-64 -1 -7 46
c-4 26 -14 285 -23 575 -9 291 -21 641 -26 779 -5 137 -6 253 -2 257 4 3 59
11 122 17 63 6 160 15 215 20 447 43 1436 86 2310 101 461 8 1173 3 1360 -9z
m-4070 -1 c3 -5 -3 -10 -14 -10 -12 0 -21 5 -21 10 0 6 6 10 14 10 8 0 18 -4
21 -10z m4336 -450 c0 -582 -1 -624 -6 -619 -2 3 -7 236 -11 518 -5 389 -4
513 5 510 8 -3 11 -110 12 -409z m59 390 c0 -5 -4 -10 -10 -10 -5 0 -10 5 -10
10 0 6 5 10 10 10 6 0 10 -4 10 -10z m0 -87 c-1 -38 -3 -44 -11 -30 -9 16 -4
77 7 77 2 0 4 -21 4 -47z m-4726 -53 c14 -14 -4 -30 -34 -30 -32 0 -45 13 -36
37 5 11 14 13 34 8 15 -3 31 -10 36 -15z m-2444 -150 c0 -20 -48 -34 -122 -34
-76 -1 -108 10 -94 33 9 14 216 15 216 1z m7190 -291 c-5 -38 -7 1 -7 126 l0
180 8 -126 c4 -69 4 -150 -1 -180z m1924 262 c9 -13 -20 -21 -79 -21 -65 0
-82 17 -23 23 83 7 97 7 102 -2z m-8874 -78 c0 -40 -2 -44 -13 -30 -7 11 -22
16 -37 15 -50 -6 -26 25 48 61 1 0 2 -20 2 -46z m11154 -51 c-6 -9 -19 -18
-28 -20 -22 -5 -21 34 2 47 23 13 40 -4 26 -27z m540 -94 c7 -30 -3 -20 -24
25 -20 41 -20 41 -1 17 11 -14 22 -33 25 -42z m-9272 47 c11 -11 -27 -75 -44
-75 -21 0 -24 31 -6 60 12 19 38 26 50 15z m-8352 -105 c0 -5 -4 -10 -10 -10
-5 0 -10 5 -10 10 0 6 5 10 10 10 6 0 10 -4 10 -10z m14418 -5 c10 -10 -14
-40 -34 -43 -28 -4 -59 22 -50 43 5 14 14 16 42 12 20 -4 39 -9 42 -12z m442
-34 c0 -13 -26 -32 -33 -24 -8 7 11 33 24 33 5 0 9 -4 9 -9z m-11243 -213 c-2
-13 -4 -5 -4 17 -1 22 1 32 4 23 2 -10 2 -28 0 -40z m9290 -200 c-1 -46 -3 -9
-3 82 0 91 2 128 3 83 2 -46 2 -120 0 -165z m-6970 79 c-2 -23 -3 -1 -3 48 0
50 1 68 3 42 2 -26 2 -67 0 -90z m-2276 10 c38 -26 41 -26 64 -11 23 15 27 15
50 0 14 -9 25 -21 25 -26 0 -5 39 -36 88 -68 48 -32 139 -96 202 -141 63 -46
175 -119 248 -164 72 -44 132 -86 132 -92 0 -7 -51 -23 -127 -39 -179 -39
-432 -100 -604 -146 -81 -22 -152 -40 -158 -40 -7 0 -7 8 0 28 6 16 12 164 15
357 5 303 11 423 21 385 2 -8 22 -27 44 -43z m10807 37 c21 -6 30 -28 15 -37
-5 -3 -29 -8 -55 -11 -39 -6 -48 -4 -48 8 0 15 37 46 55 46 5 0 20 -3 33 -6z
m-1100 -43 c30 -26 28 -37 -9 -45 -51 -10 -88 -7 -119 9 -41 21 -38 32 13 43
64 15 90 13 115 -7z m462 -15 c0 -2 -7 -6 -15 -10 -8 -3 -15 -1 -15 4 0 6 7
10 15 10 8 0 15 -2 15 -4z m-8334 -17 c10 -17 -13 -36 -27 -22 -12 12 -4 33
11 33 5 0 12 -5 16 -11z m8942 -55 c3 -22 -19 -38 -75 -53 -36 -11 -63 6 -63
38 0 31 22 42 80 39 47 -3 55 -6 58 -24z m-9163 -4 c-3 -5 -11 -10 -16 -10 -6
0 -7 5 -4 10 3 6 11 10 16 10 6 0 7 -4 4 -10z m9353 -13 c3 -16 -2 -18 -35
-15 -27 2 -39 8 -41 21 -3 16 2 18 35 15 27 -2 39 -8 41 -21z m-9064 -3 c22
-9 20 -24 -3 -24 -21 0 -34 13 -24 24 8 7 8 7 27 0z m375 -41 c0 -27 -3 -42
-6 -35 -3 7 -23 12 -49 12 -56 0 -56 14 1 36 25 9 45 21 45 25 0 5 2 9 5 9 3
0 5 -21 4 -47z m6878 -25 c-3 -8 -6 -5 -6 6 -1 11 2 17 5 13 3 -3 4 -12 1 -19z
m368 -3 c0 -11 -15 -29 -35 -43 -28 -18 -45 -22 -90 -20 -41 2 -55 7 -55 18 0
8 11 17 25 18 13 2 38 15 55 28 38 31 100 30 100 -1z m-278 -37 c-3 -8 -6 -5
-6 6 -1 11 2 17 5 13 3 -3 4 -12 1 -19z m-5586 -48 c259 -27 473 -94 674 -214
153 -91 396 -300 507 -436 180 -222 348 -514 465 -810 145 -367 222 -715 268
-1215 25 -265 14 -762 -19 -950 -3 -16 -13 -75 -22 -130 -57 -358 -193 -748
-364 -1050 -412 -724 -1018 -1200 -1667 -1310 -333 -56 -624 -25 -878 95 -232
110 -548 403 -731 678 -205 308 -379 787 -473 1302 -121 667 -113 1207 29
1875 8 37 20 83 50 190 147 526 402 972 775 1353 263 271 538 479 727 552 181
70 414 94 659 70z m9647 -12 c-3 -7 -11 -13 -18 -13 -7 0 -15 6 -17 13 -3 7 4
12 17 12 13 0 20 -5 18 -12z m-9031 -35 c-3 -3 -11 -2 -17 2 -9 6 -9 10 1 16
14 8 27 -7 16 -18z m-1897 -13 c-20 -13 -33 -13 -25 0 3 6 14 10 23 10 15 0
15 -2 2 -10z m6777 -177 c-2 -37 -3 -9 -3 62 0 72 1 102 3 68 2 -34 2 -93 0
-130z m1333 87 c0 -10 -6 -20 -14 -23 -10 -4 -15 5 -18 33 -3 37 -2 38 14 23
10 -9 18 -24 18 -33z m-13595 10 c3 -5 -1 -10 -10 -10 -9 0 -13 5 -10 10 3 6
8 10 10 10 2 0 7 -4 10 -10z m7898 -87 c10 -102 8 -173 -4 -173 -5 0 -45 33
-87 73 -42 40 -99 88 -127 107 l-50 35 115 11 c63 6 122 12 131 12 13 2 17
-12 22 -65z m-5613 -97 c0 -25 -30 -39 -86 -39 -37 0 -61 5 -71 16 -15 14 -13
17 18 25 54 16 139 15 139 -2z m-185 -7 c4 -5 -1 -19 -11 -30 -15 -16 -28 -19
-73 -17 -39 2 -56 7 -56 17 0 27 126 54 140 30z m10130 -19 c18 -4 -30 -7
-115 -7 -96 0 -128 2 -95 7 68 9 173 9 210 0z m152 -16 c-9 -9 -28 6 -21 18 4
6 10 6 17 -1 6 -6 8 -13 4 -17z m-80 10 c-3 -3 -12 -4 -19 -1 -8 3 -5 6 6 6
11 1 17 -2 13 -5z m4653 -4 c0 -5 -5 -10 -11 -10 -5 0 -7 5 -4 10 3 6 8 10 11
10 2 0 4 -4 4 -10z m-13018 -175 c3 -88 11 -558 18 -1045 6 -487 15 -1126 20
-1420 5 -294 14 -890 20 -1325 20 -1589 30 -2203 36 -2341 l7 -142 -26 -17
c-15 -9 -122 -59 -239 -109 -117 -51 -244 -107 -282 -124 -38 -18 -77 -32 -86
-32 -18 0 -83 83 -313 400 -70 96 -170 234 -223 305 -52 72 -134 184 -182 250
-47 66 -151 208 -231 315 -207 279 -356 480 -442 596 -40 56 -106 144 -145
195 -71 94 -110 148 -217 301 -150 214 -227 324 -287 412 -66 97 -200 294
-317 464 -44 63 -70 92 -83 92 -24 0 -25 -21 -10 -435 5 -154 16 -638 25
-1075 19 -1007 33 -1699 40 -1911 4 -127 2 -169 -7 -176 -7 -5 -49 -20 -93
-32 -138 -39 -271 -80 -552 -168 -150 -48 -275 -84 -277 -82 -2 2 -20 153 -40
334 -20 182 -41 366 -46 410 -13 109 -37 355 -55 560 -8 94 -22 231 -30 305
-15 137 -35 348 -80 830 -13 146 -27 283 -30 305 -3 22 -18 185 -35 363 -16
177 -44 443 -60 590 -17 147 -42 366 -55 487 -14 121 -32 276 -39 345 -26 226
-45 402 -66 615 -50 495 -70 693 -76 732 l-6 42 128 62 c263 126 396 187 709
324 17 7 89 40 161 72 72 33 136 57 142 55 11 -3 256 -341 437 -602 33 -47
127 -179 209 -295 136 -191 347 -504 983 -1457 120 -180 232 -349 248 -375 20
-31 37 -48 50 -48 19 0 20 6 18 225 -1 124 -9 441 -17 705 -9 264 -20 676 -26
915 -6 239 -20 646 -30 905 -16 376 -18 471 -8 480 16 14 78 37 178 65 41 12
111 32 155 45 537 156 1015 276 1085 272 l35 -2 7 -160z m1431 118 c-7 -2 -21
-2 -30 0 -10 3 -4 5 12 5 17 0 24 -2 18 -5z m-5433 -50 c0 -21 -3 -24 -12 -15
-7 7 -25 12 -40 12 -15 0 -28 5 -28 11 0 7 11 8 29 4 17 -3 32 -2 36 4 10 18
15 13 15 -16z m5177 21 c-3 -3 -12 -4 -19 -1 -8 3 -5 6 6 6 11 1 17 -2 13 -5z
m8203 -14 c-12 -23 -30 -27 -30 -6 0 8 8 17 18 19 9 3 18 5 20 6 1 0 -2 -8 -8
-19z m-10507 -57 c-7 -2 -19 -2 -25 0 -7 3 -2 5 12 5 14 0 19 -2 13 -5z m1549
-3 c-36 -8 -35 -7 -49 -34 -10 -18 -11 -18 -32 3 -11 11 -21 25 -21 29 0 5 30
8 68 8 50 1 59 -1 34 -6z m-4113 -19 l61 13 68 -65 c37 -36 114 -106 172 -155
58 -49 141 -121 185 -160 44 -39 125 -109 181 -155 55 -46 176 -149 270 -230
207 -178 235 -199 262 -199 12 0 21 -3 21 -7 -8 -48 53 -82 165 -95 81 -9 733
-11 747 -3 7 5 12 -102 24 -455 3 -85 9 -279 15 -430 15 -452 16 -533 3 -537
-6 -2 -16 5 -22 15 -15 29 -158 198 -377 450 l-195 222 -38 -6 c-43 -7 -59 6
-36 29 8 9 15 22 15 31 0 15 -87 115 -310 356 -118 128 -553 610 -614 680 -94
110 -159 170 -183 170 -13 0 -144 -52 -291 -115 -146 -63 -267 -113 -269 -112
-1 2 4 55 11 118 8 63 20 168 26 233 7 66 14 129 17 140 3 12 5 78 5 148 1
102 4 126 14 117 9 -7 31 -6 73 2z m8002 -154 c41 -30 135 -102 209 -161 90
-71 137 -103 144 -96 17 17 26 11 26 -18 0 -32 23 -56 180 -185 156 -128 473
-419 487 -447 9 -17 13 -86 13 -225 1 -110 5 -276 10 -370 11 -218 2 -239 -49
-115 -75 182 -295 555 -474 806 -225 313 -345 464 -574 722 -51 58 -93 113
-93 123 0 33 42 21 121 -34z m-3113 -29 c-66 -78 -150 -184 -208 -265 -25 -34
-51 -65 -59 -68 -15 -6 -22 0 -166 137 -44 42 -113 104 -153 138 -65 56 -72
64 -55 74 10 5 119 14 243 18 124 5 266 12 315 17 153 14 145 19 83 -51z
m-4153 -63 c0 -14 -8 -21 -27 -23 -22 -3 -28 1 -28 17 0 10 6 22 13 24 23 10
42 2 42 -18z m14940 -128 c17 -13 16 -14 -13 -20 -38 -8 -62 0 -62 19 0 18 50
18 75 1z m-13749 -12 c19 -15 19 -15 -1 -31 -15 -11 -32 -14 -64 -10 -53 7
-58 11 -42 30 11 13 24 17 77 25 5 0 19 -6 30 -14z m10724 -29 c0 -19 -68 -42
-82 -28 -6 6 -2 15 13 26 29 20 69 21 69 2z m-11434 -31 c-21 -16 -56 -20 -56
-7 0 16 13 22 44 22 29 -1 30 -1 12 -15z m370 -47 c2 -26 -1 -38 -9 -38 -20 0
-37 22 -37 45 0 52 41 45 46 -7z m14189 12 c10 -16 -14 -40 -39 -40 -29 0 -61
24 -52 38 9 15 83 16 91 2z m-3175 -50 c0 -5 -7 -10 -15 -10 -8 0 -15 5 -15
10 0 6 7 10 15 10 8 0 15 -4 15 -10z m3628 -51 c4 -19 -19 -31 -38 -19 -18 11
-4 42 17 38 10 -2 19 -10 21 -19z m-16621 -21 c-3 -7 -5 -2 -5 12 0 14 2 19 5
13 2 -7 2 -19 0 -25z m12181 11 c2 -12 -6 -18 -30 -21 -58 -9 -80 18 -27 33
35 10 53 6 57 -12z m-3058 -22 c0 -22 -23 -37 -57 -37 -41 0 -44 20 -7 49 20
16 31 18 45 10 10 -5 19 -15 19 -22z m1956 -40 c3 -33 1 -58 -5 -62 -7 -4 -11
16 -11 61 0 79 10 79 16 1z m4984 3 c20 -13 3 -28 -35 -30 -51 -3 -65 0 -65
14 0 23 71 34 100 16z m835 -12 c11 -10 -20 -38 -43 -38 -41 0 -70 44 -34 53
22 5 64 -3 77 -15z m-5594 -14 c26 -31 -38 -57 -82 -34 -25 14 -24 29 4 40 34
14 63 12 78 -6z m-8783 -21 c-3 -32 -44 -46 -54 -19 -8 21 13 46 38 46 15 0
19 -6 16 -27z m10029 11 c8 -21 -21 -44 -54 -44 -13 0 -23 -5 -23 -12 0 -6 -9
-3 -20 7 -22 20 -26 51 -7 58 6 3 31 6 55 6 31 1 44 -4 49 -15z m-10262 -35
c0 -15 -7 -25 -19 -27 -27 -6 -38 19 -19 41 21 23 38 17 38 -14z m2235 -30 c0
-5 -7 -9 -15 -9 -15 0 -20 12 -9 23 8 8 24 -1 24 -14z m4810 -9 c0 -5 -4 -10
-9 -10 -6 0 -13 5 -16 10 -3 6 1 10 9 10 9 0 16 -4 16 -10z m1748 -40 c0 -27
-3 -50 -9 -50 -5 0 -9 23 -9 50 0 28 4 50 8 50 5 0 9 -22 10 -50z m1780 19
c-3 -8 -7 -3 -11 10 -4 17 -3 21 5 13 5 -5 8 -16 6 -23z m4292 11 c0 -5 -4
-10 -10 -10 -5 0 -10 5 -10 10 0 6 5 10 10 10 6 0 10 -4 10 -10z m28 -25 c-6
-14 -13 -23 -15 -21 -5 5 15 46 22 46 3 0 -1 -11 -7 -25z m-14663 -45 c3 -5 2
-10 -4 -10 -5 0 -13 5 -16 10 -3 6 -2 10 4 10 5 0 13 -4 16 -10z m8565 -56 c0
-8 -5 -12 -10 -9 -6 4 -8 11 -5 16 9 14 15 11 15 -7z m-12985 -64 c3 -5 1 -10
-4 -10 -6 0 -11 5 -11 10 0 6 2 10 4 10 3 0 8 -4 11 -10z m315 -36 c17 -20 -2
-39 -48 -48 -43 -8 -56 19 -23 46 28 22 54 23 71 2z m12666 -11 c-10 -10 -19
5 -10 18 6 11 8 11 12 0 2 -7 1 -15 -2 -18z m877 15 c9 -5 17 -17 17 -28 0
-15 -10 -20 -43 -25 -69 -11 -141 28 -110 59 10 10 113 5 136 -6z m-12734
-141 c14 -18 4 -27 -30 -27 -34 0 -46 15 -22 29 24 14 39 13 52 -2z m16005 -3
c22 -8 20 -31 -3 -44 -35 -18 -101 21 -70 41 16 10 51 12 73 3z m-4157 -251
c-1 -43 -3 -8 -3 77 0 85 2 120 3 78 2 -43 2 -113 0 -155z m5147 118 c3 -5 -1
-11 -9 -15 -15 -6 -29 7 -18 18 9 9 21 8 27 -3z m-107 -27 c-3 -3 -12 -4 -19
-1 -8 3 -5 6 6 6 11 1 17 -2 13 -5z m-4862 -64 c-3 -5 -10 -10 -16 -10 -5 0
-9 5 -9 10 0 6 7 10 16 10 8 0 12 -4 9 -10z m-13049 -61 c10 -17 -13 -36 -27
-22 -12 12 -4 33 11 33 5 0 12 -5 16 -11z m16662 -317 c3 -9 -3 -13 -19 -10
-12 1 -24 9 -27 16 -3 9 3 13 19 10 12 -1 24 -9 27 -16z m-10591 -64 c-3 -8
-6 -5 -6 6 -1 11 2 17 5 13 3 -3 4 -12 1 -19z m7750 -10 c-3 -7 -5 -2 -5 12 0
14 2 19 5 13 2 -7 2 -19 0 -25z m-7690 -10 c-3 -8 -6 -5 -6 6 -1 11 2 17 5 13
3 -3 4 -12 1 -19z m7283 2 c0 -5 -13 -10 -30 -10 -16 0 -30 5 -30 10 0 6 14
10 30 10 17 0 30 -4 30 -10z m-12463 -21 l28 -12 -25 -7 c-14 -5 -48 -8 -77
-9 -42 -1 -51 2 -47 13 3 9 23 17 47 19 23 2 43 4 44 5 1 1 14 -3 30 -9z
m5120 -81 c-2 -13 -4 -3 -4 22 0 25 2 35 4 23 2 -13 2 -33 0 -45z m4690 10
c-3 -7 -5 -2 -5 12 0 14 2 19 5 13 2 -7 2 -19 0 -25z m-4689 -828 c-4 -8 -7
167 -5 390 l2 405 5 -390 c3 -214 2 -397 -2 -405z m11180 703 c28 -8 52 -18
52 -22 0 -18 -30 -32 -52 -25 -13 4 -60 7 -105 8 -65 1 -86 5 -100 19 -17 18
-17 19 2 33 22 17 118 11 203 -13z m-558 -8 c0 -8 -7 -15 -15 -15 -8 0 -18 0
-22 -1 -17 -1 -13 20 4 24 31 8 33 7 33 -8z m-3236 -28 c15 -24 -6 -37 -59
-37 -77 0 -110 24 -67 49 28 17 113 9 126 -12z m-2670 -77 c-5 -83 -7 -85 -14
-15 -7 79 -1 128 10 85 4 -14 5 -45 4 -70z m6206 -65 c19 -23 2 -38 -39 -30
-20 4 -43 11 -51 15 -12 7 -10 11 10 19 36 14 66 13 80 -4z m-6213 -97 c-3 -7
-5 -2 -5 12 0 14 2 19 5 13 2 -7 2 -19 0 -25z m2099 11 c4 -7 28 -9 70 -4 53
5 64 4 64 -8 0 -12 -17 -16 -77 -19 -78 -3 -96 3 -86 29 6 16 19 17 29 2z
m-1849 -135 c-3 -3 -12 -4 -19 -1 -8 3 -5 6 6 6 11 1 17 -2 13 -5z m2673 -59
c0 -8 -9 -15 -20 -15 -11 0 -20 7 -20 15 0 8 9 15 20 15 11 0 20 -7 20 -15z
m23 -162 c4 -2 7 -8 7 -14 0 -11 -70 -12 -89 0 -33 21 45 34 82 14z m-310 -30
c4 -2 7 -11 7 -18 0 -24 -37 -36 -90 -29 -39 5 -50 11 -50 24 0 24 45 40 90
33 19 -3 38 -8 43 -10z m-7266 -75 c-3 -8 -6 -5 -6 6 -1 11 2 17 5 13 3 -3 4
-12 1 -19z m-80 -55 c-3 -10 -5 -2 -5 17 0 19 2 27 5 18 2 -10 2 -26 0 -35z
m4904 -68 c0 -5 -7 -12 -16 -13 -23 -5 -47 6 -40 19 8 13 56 8 56 -6z m-4814
-57 c-3 -7 -5 -2 -5 12 0 14 2 19 5 13 2 -7 2 -19 0 -25z m4861 -220 c-3 -7
-13 -13 -23 -13 -10 0 -20 6 -22 13 -3 7 5 12 22 12 17 0 25 -5 23 -12z m5462
-28 c0 -5 -7 -10 -16 -10 -8 0 -12 5 -9 10 3 6 10 10 16 10 5 0 9 -4 9 -10z
m-5440 -75 c0 -16 -35 -21 -44 -6 -8 12 4 21 26 21 10 0 18 -7 18 -15z m2767
-22 c-3 -10 -5 -4 -5 12 0 17 2 24 5 18 2 -7 2 -21 0 -30z m-7720 -40 c-3 -10
-5 -4 -5 12 0 17 2 24 5 18 2 -7 2 -21 0 -30z m4 -129 l-9 -49 -1 65 c0 44 3
60 9 49 5 -9 5 -36 1 -65z m4922 39 c-7 -2 -19 -2 -25 0 -7 3 -2 5 12 5 14 0
19 -2 13 -5z m2497 -29 c0 -10 -7 -14 -22 -12 -32 5 -35 28 -4 28 17 0 26 -5
26 -16z m2310 6 c0 -5 -5 -10 -11 -10 -5 0 -7 5 -4 10 3 6 8 10 11 10 2 0 4
-4 4 -10z m-1134 -85 c115 -9 319 -24 454 -35 135 -10 331 -24 435 -30 105 -7
193 -15 196 -18 5 -7 2 -173 -20 -877 -7 -203 -13 -408 -14 -455 l-2 -85 -60
1 c-33 0 -150 6 -260 12 -110 7 -270 17 -355 22 -421 25 -521 34 -529 44 -10
12 -31 290 -56 736 -8 151 -20 339 -25 416 -6 78 -10 174 -10 213 0 63 2 71
19 71 10 0 112 -7 227 -15z m-8594 -27 c-9 -9 -12 -7 -12 12 0 19 3 21 12 12
9 -9 9 -15 0 -24z m-1 -81 c-8 -8 -11 -3 -11 19 1 25 2 27 11 11 8 -14 8 -22
0 -30z m9885 -75 c34 -48 72 -106 84 -129 l22 -43 -16 -487 c-18 -526 -33
-840 -42 -855 -4 -6 -20 -7 -38 -4 -17 3 -116 13 -220 21 -103 8 -227 19 -275
25 -47 5 -158 12 -246 15 -211 8 -300 20 -342 46 -19 12 -31 25 -26 29 4 5 64
4 133 0 470 -33 798 -50 816 -43 16 6 21 114 39 728 19 684 24 785 39 785 6 0
39 -40 72 -88z m-2166 31 c0 -37 -3 -44 -12 -35 -7 7 -27 12 -45 12 -22 0 -36
6 -40 16 -7 20 13 34 49 34 15 0 30 5 33 10 12 19 15 10 15 -37z m-7710 -38
c0 -8 -4 -17 -10 -20 -6 -4 -10 5 -10 20 0 15 4 24 10 20 6 -3 10 -12 10 -20z
m4740 1 c0 -11 -19 -15 -25 -6 -3 5 1 10 9 10 9 0 16 -2 16 -4z m510 -6 c0 -5
-7 -10 -15 -10 -8 0 -15 5 -15 10 0 6 7 10 15 10 8 0 15 -4 15 -10z m2457 -77
c-3 -10 -5 -4 -5 12 0 17 2 24 5 18 2 -7 2 -21 0 -30z m-2571 13 c23 -17 17
-25 -30 -36 -41 -9 -73 8 -63 34 8 20 65 22 93 2z m-5145 -63 c-8 -14 -10 -9
-10 27 1 42 1 43 10 18 7 -18 7 -33 0 -45z m7669 33 c0 -11 -19 -15 -25 -6 -3
5 1 10 9 10 9 0 16 -2 16 -4z m3005 -56 c4 -6 -5 -10 -20 -10 -15 0 -24 4 -20
10 3 6 12 10 20 10 8 0 17 -4 20 -10z m-10665 -50 c0 -10 -4 -22 -10 -25 -6
-4 -10 7 -10 25 0 18 4 29 10 25 6 -3 10 -15 10 -25z m7155 0 c0 -8 -16 -18
-38 -23 -31 -8 -42 -6 -55 6 -13 14 -13 17 -1 21 54 18 94 17 94 -4z m-7155
-100 c0 -10 -4 -22 -10 -25 -6 -4 -10 7 -10 25 0 18 4 29 10 25 6 -3 10 -15
10 -25z m7665 -25 c0 -28 -40 -46 -76 -33 -35 12 -36 20 -6 42 31 22 82 17 82
-9z m-7666 -85 c1 -26 -2 -31 -9 -20 -5 8 -9 33 -9 55 0 31 2 36 9 20 5 -11 9
-36 9 -55z m-3032 -17 c-3 -10 -5 -2 -5 17 0 19 2 27 5 18 2 -10 2 -26 0 -35z
m9800 -15 c-3 -7 -5 -2 -5 12 0 14 2 19 5 13 2 -7 2 -19 0 -25z m-6770 -65
c-3 -10 -5 -4 -5 12 0 17 2 24 5 18 2 -7 2 -21 0 -30z m4791 14 c2 -11 -3 -17
-16 -17 -24 0 -32 8 -25 26 7 20 37 13 41 -9z m-7821 -34 c-3 -10 -5 -4 -5 12
0 17 2 24 5 18 2 -7 2 -21 0 -30z m8068 -17 c18 -13 18 -14 -3 -25 -28 -15
-54 -14 -78 3 -18 14 -18 15 6 25 35 14 53 13 75 -3z m2672 -70 c-3 -8 -16
-13 -29 -12 -32 1 -31 37 2 53 22 11 25 10 28 -8 2 -11 1 -26 -1 -33z m-7710
-18 c-2 -13 -4 -3 -4 22 0 25 2 35 4 23 2 -13 2 -33 0 -45z m-3030 -10 c-2
-13 -4 -5 -4 17 -1 22 1 32 4 23 2 -10 2 -28 0 -40z m3030 -95 c-3 -10 -5 -2
-5 17 0 19 2 27 5 18 2 -10 2 -26 0 -35z m-3030 -95 c-2 -24 -4 -5 -4 42 0 47
2 66 4 43 2 -24 2 -62 0 -85z m13148 67 c0 -5 -15 -11 -32 -13 -25 -3 -33 1
-33 13 0 12 8 16 33 13 17 -2 32 -7 32 -13z m-10118 -62 c-2 -16 -4 -5 -4 22
0 28 2 40 4 28 2 -13 2 -35 0 -50z m7444 -79 c9 -11 7 -16 -10 -22 -33 -12
-91 -3 -91 14 0 31 77 37 101 8z m-10474 -61 c-3 -10 -5 -4 -5 12 0 17 2 24 5
18 2 -7 2 -21 0 -30z m13248 27 c-3 -5 -10 -10 -16 -10 -5 0 -9 5 -9 10 0 6 7
10 16 10 8 0 12 -4 9 -10z m-9755 -80 c0 -5 -7 -10 -15 -10 -8 0 -15 5 -15 10
0 6 7 10 15 10 8 0 15 -4 15 -10z m10325 -220 c3 -5 1 -10 -4 -10 -6 0 -11 5
-11 10 0 6 2 10 4 10 3 0 8 -4 11 -10z m42 -12 c-3 -8 -6 -5 -6 6 -1 11 2 17
5 13 3 -3 4 -12 1 -19z m-369 -90 c-5 -15 -48 -24 -48 -10 0 14 12 22 33 22
10 0 17 -5 15 -12z m279 -14 c1 -5 -2 -16 -7 -24 -12 -20 -35 2 -26 25 6 17
27 16 33 -1z m-6000 -28 c4 -3 4 -8 1 -11 -9 -10 -110 -23 -130 -17 -25 6 -18
25 13 34 26 8 106 4 116 -6z m-7745 -298 c1 -158 -1 -290 -5 -294 -4 -4 -7
127 -7 291 0 164 2 296 4 294 3 -2 6 -133 8 -291z m3025 -390 c-1 -128 -2 -26
-2 227 0 253 1 358 2 233 2 -125 2 -332 0 -460z m6750 555 c-2 -16 -4 -5 -4
22 0 28 2 40 4 28 2 -13 2 -35 0 -50z m431 19 c2 -7 -7 -12 -22 -12 -27 0 -35
15 -13 23 17 7 30 3 35 -11z m-431 -94 c-3 -7 -5 -2 -5 12 0 14 2 19 5 13 2
-7 2 -19 0 -25z m3398 -28 c10 -16 -14 -40 -41 -40 -31 0 -41 20 -19 37 22 16
51 17 60 3z m-4845 -28 c0 -15 -2 -15 -10 -2 -13 20 -13 33 0 25 6 -3 10 -14
10 -23z m4558 21 c-10 -2 -28 -2 -40 0 -13 2 -5 4 17 4 22 1 32 -1 23 -4z
m-3158 -7 c0 -3 -4 -8 -10 -11 -5 -3 -10 -1 -10 4 0 6 5 11 10 11 6 0 10 -2
10 -4z m57 -12 c-3 -3 -12 -4 -19 -1 -8 3 -5 6 6 6 11 1 17 -2 13 -5z m317 0
c9 -3 16 -14 16 -24 0 -30 -58 -42 -79 -16 -10 11 -7 17 11 30 25 18 29 19 52
10z m-691 -21 c-7 -2 -19 -2 -25 0 -7 3 -2 5 12 5 14 0 19 -2 13 -5z m-1938
-113 c8 -13 -23 -32 -47 -28 -28 4 -36 35 -11 40 22 5 52 -1 58 -12z m6149 5
c11 -8 35 -15 53 -15 41 0 42 -15 3 -35 -35 -18 -62 -19 -77 -4 -9 9 -27 9
-74 0 -52 -11 -64 -10 -77 2 -13 13 -11 17 11 31 22 15 87 33 127 35 8 0 24
-6 34 -14z m-13154 -25 c0 -5 -4 -10 -10 -10 -5 0 -10 5 -10 10 0 6 5 10 10
10 6 0 10 -4 10 -10z m12665 -30 c10 -16 -14 -40 -41 -40 -29 0 -40 16 -24 35
14 17 56 20 65 5z m-7072 -17 c-7 -2 -19 -2 -25 0 -7 3 -2 5 12 5 14 0 19 -2
13 -5z m-76 -29 c-3 -3 -12 -4 -19 -1 -8 3 -5 6 6 6 11 1 17 -2 13 -5z m-64
-21 c-7 -2 -21 -2 -30 0 -10 3 -4 5 12 5 17 0 24 -2 18 -5z m1148 -13 c23 -13
25 -36 3 -44 -9 -3 -36 -6 -60 -6 -36 0 -44 3 -44 18 0 33 62 52 101 32z
m5612 -37 c11 -7 8 -31 -5 -36 -13 -5 -95 1 -135 9 -25 5 -31 29 -10 38 13 6
137 -3 150 -11z m484 -39 c5 -14 -14 -22 -77 -30 -41 -5 -50 -4 -50 9 0 30
118 49 127 21z m307 -34 c-14 -13 -77 -16 -81 -4 -2 7 3 19 12 28 15 14 19 14
47 0 17 -9 26 -19 22 -24z m-8056 -122 c-5 -15 -68 -24 -68 -10 0 15 13 22 43
22 18 0 27 -4 25 -12z m4187 -38 c0 -21 -5 -26 -33 -28 -40 -4 -56 23 -26 45
29 21 59 13 59 -17z m4242 -192 c-2 -24 -4 -7 -4 37 0 44 2 63 4 43 2 -21 2
-57 0 -80z m-4014 66 c16 -16 -15 -44 -48 -44 -36 0 -46 15 -23 38 13 13 60
16 71 6z m-2819 -20 c9 -3 16 -10 16 -16 0 -14 -65 -38 -105 -38 -28 0 -35 4
-35 20 0 10 8 24 18 29 19 12 82 14 106 5z m-3987 -51 c-3 -10 -5 -2 -5 17 0
19 2 27 5 18 2 -10 2 -26 0 -35z m2925 6 c21 -11 21 -12 3 -25 -21 -16 -111
-19 -120 -5 -8 14 36 41 68 41 16 0 38 -5 49 -11z m7036 -16 c-16 -2 -40 -2
-55 0 -16 2 -3 4 27 4 30 0 43 -2 28 -4z m95 0 c-7 -2 -19 -2 -25 0 -7 3 -2 5
12 5 14 0 19 -2 13 -5z m110 -10 c-7 -2 -21 -2 -30 0 -10 3 -4 5 12 5 17 0 24
-2 18 -5z m-9423 -39 c0 -16 -43 -29 -66 -20 -21 8 -13 28 16 43 26 13 50 2
50 -23z m9768 19 c-10 -2 -28 -2 -40 0 -13 2 -5 4 17 4 22 1 32 -1 23 -4z
m165 -10 c-13 -2 -35 -2 -50 0 -16 2 -5 4 22 4 28 0 40 -2 28 -4z m132 -3 c-3
-5 -14 -10 -23 -9 -14 0 -13 2 3 9 27 11 27 11 20 0z m-3762 -87 c-7 -2 -19
-2 -25 0 -7 3 -2 5 12 5 14 0 19 -2 13 -5z m-10046 -150 c-3 -10 -5 -4 -5 12
0 17 2 24 5 18 2 -7 2 -21 0 -30z m6691 -55 c20 -20 14 -26 -42 -42 -62 -18
-96 -20 -96 -6 0 6 -6 10 -14 10 -28 0 -27 19 1 34 34 18 134 21 151 4z m-616
-45 c27 -24 22 -41 -16 -48 -47 -9 -77 -3 -90 18 -24 39 67 65 106 30z m-3415
-99 c-3 -3 -12 -4 -19 -1 -8 3 -5 6 6 6 11 1 17 -2 13 -5z m3346 -1 c-7 -2
-19 -2 -25 0 -7 3 -2 5 12 5 14 0 19 -2 13 -5z m-6006 -215 c-3 -8 -6 -5 -6 6
-1 11 2 17 5 13 3 -3 4 -12 1 -19z m817 -114 c16 -10 26 -12 31 -5 10 17 45
13 45 -4 0 -10 -10 -15 -29 -15 -16 0 -34 -7 -42 -16 -12 -15 -45 -14 -101 2
-29 9 -20 33 15 43 46 13 55 13 81 -5z m-1454 -224 c12 -8 9 -10 -13 -10 -16
0 -26 4 -22 10 8 12 16 12 35 0z m1430 -145 c0 -11 -12 -15 -50 -15 -46 0 -60
7 -43 23 3 4 26 7 50 7 32 0 43 -4 43 -15z m-750 -149 c0 -15 -27 -25 -47 -19
-26 9 -13 33 17 33 19 0 30 -5 30 -14z m510 -146 c0 -16 -7 -20 -34 -20 -20 0
-36 6 -39 14 -8 20 2 26 40 26 26 0 33 -4 33 -20z m-58 -278 c6 -6 8 -18 5
-26 -11 -29 -152 -15 -152 14 0 8 11 17 25 22 33 9 109 3 122 -10z m485 -104
c-3 -7 -5 -2 -5 12 0 14 2 19 5 13 2 -7 2 -19 0 -25z"/>
<path d="M17627 14789 c-83 -19 -129 -58 -171 -144 -26 -54 -29 -91 -5 -83 6
2 20 28 32 58 56 138 249 174 379 70 20 -17 42 -30 47 -30 20 0 11 27 -16 55
-34 34 -74 54 -138 71 -56 15 -74 16 -128 3z"/>
<path d="M15820 14530 c-57 -21 -104 -64 -148 -135 -22 -37 -26 -68 -8 -69 5
-1 25 26 45 59 29 47 47 65 90 87 91 48 208 32 291 -39 44 -38 50 -40 50 -14
0 25 -61 78 -119 103 -68 29 -136 32 -201 8z"/>
<path d="M17691 14360 c-147 -39 -268 -130 -343 -259 -21 -35 -38 -68 -38 -73
0 -5 -9 -27 -20 -48 -43 -85 -72 -322 -50 -409 12 -44 28 -134 33 -176 2 -20
0 -21 -123 -80 -30 -14 -69 -39 -86 -54 -44 -40 -97 -119 -90 -137 10 -25 32
-15 61 26 96 139 271 201 432 154 59 -17 133 -75 158 -125 24 -46 45 -113 45
-145 0 -45 -67 -152 -118 -188 -112 -80 -263 -99 -397 -50 -98 36 -103 37
-120 31 -29 -12 -3 -36 69 -66 92 -38 164 -50 253 -40 117 12 207 58 288 147
l40 44 116 -23 115 -22 88 21 c108 26 163 52 243 115 89 69 131 130 207 301
58 132 59 382 1 536 -109 292 -285 458 -555 526 -74 18 -121 17 -209 -6z m244
-61 c22 -6 74 -27 115 -46 60 -29 94 -56 173 -134 53 -54 97 -105 97 -114 0
-8 3 -15 8 -15 4 0 16 -17 26 -37 10 -21 22 -46 28 -56 15 -29 46 -136 59
-205 14 -77 7 -234 -15 -317 -62 -229 -240 -401 -451 -435 -77 -13 -182 -6
-232 15 -28 12 -33 19 -33 47 0 54 12 64 58 50 90 -27 157 -7 233 68 73 73
109 174 109 307 -1 236 -135 477 -294 527 -107 34 -178 20 -244 -47 -63 -64
-94 -142 -105 -265 -7 -76 -6 -107 2 -115 7 -7 64 -13 151 -15 77 -3 140 -8
140 -13 0 -5 -12 -14 -27 -21 -16 -6 -75 -33 -132 -60 -99 -47 -108 -49 -179
-46 -79 3 -76 1 -106 66 -39 86 -46 345 -11 442 8 25 22 63 30 86 39 110 149
242 245 295 100 55 229 69 355 38z"/>
<path d="M15920 14001 c-87 -24 -156 -60 -216 -114 -58 -52 -122 -142 -148
-207 -10 -25 -22 -50 -26 -55 -5 -6 -19 -53 -31 -105 -29 -127 -29 -273 -1
-390 22 -88 71 -213 91 -233 6 -6 11 -15 11 -20 0 -15 62 -101 109 -151 151
-158 397 -244 546 -191 22 8 47 15 55 15 43 0 181 88 246 155 45 47 144 221
144 253 0 5 9 38 20 72 28 88 28 282 0 372 -11 34 -20 69 -20 76 0 31 -91 211
-134 266 -101 129 -231 216 -382 256 -94 24 -177 25 -264 1z m255 -55 c111
-29 231 -105 309 -194 17 -20 43 -49 58 -65 29 -32 90 -151 106 -207 42 -141
44 -155 39 -285 -3 -77 -11 -152 -21 -185 -63 -216 -236 -385 -430 -420 -298
-55 -560 141 -683 510 -20 62 -29 297 -14 385 38 216 184 398 371 461 48 16
205 17 265 0z"/>
<path d="M15873 13619 c-99 -49 -167 -190 -168 -349 l0 -75 30 -6 c17 -4 83
-7 148 -8 64 0 117 -5 117 -10 0 -5 -21 -19 -47 -31 -148 -69 -193 -92 -202
-104 -21 -25 63 -168 140 -240 90 -83 155 -102 253 -74 295 83 264 714 -43
882 -69 37 -171 44 -228 15z"/>
<path d="M17995 12330 c-33 -5 -105 -22 -160 -39 -55 -17 -127 -38 -160 -46
-33 -8 -84 -22 -114 -31 -141 -41 -514 -68 -631 -45 -90 18 -365 41 -490 41
-272 0 -445 -52 -532 -161 -27 -34 -30 -44 -35 -145 -6 -107 -5 -110 26 -178
109 -233 321 -407 601 -495 111 -34 117 -35 325 -57 166 -17 194 -16 490 17
502 56 987 344 1135 673 26 60 30 79 30 159 0 75 -4 98 -20 122 -11 17 -20 36
-20 44 0 30 -53 81 -116 112 -59 29 -75 33 -167 35 -56 1 -129 -1 -162 -6z
m285 -69 c69 -31 151 -120 150 -163 -1 -18 -56 -52 -143 -88 -134 -55 -201
-58 -226 -12 -9 17 -48 202 -54 256 -3 28 32 36 138 31 62 -2 104 -10 135 -24z
m-314 -63 c10 -32 17 -86 18 -138 1 -79 -2 -90 -27 -129 -27 -41 -53 -57 -152
-94 -140 -53 -320 -97 -398 -97 -65 0 -77 12 -77 78 0 31 -6 89 -12 127 -6 39
-12 93 -12 120 l-1 50 45 6 c84 11 255 49 375 84 125 35 152 41 197 44 23 1
28 -5 44 -51z m-1528 -143 c2 -49 0 -137 -3 -193 l-7 -104 -34 -14 c-104 -44
-435 24 -474 97 -20 36 -4 124 29 173 59 85 203 135 381 133 l105 -2 3 -90z
m303 81 c96 -16 226 -26 382 -28 62 -1 111 -6 116 -12 12 -14 41 -285 33 -305
-16 -42 -95 -83 -211 -108 -96 -22 -433 -25 -496 -5 -52 16 -86 43 -85 67 3
148 12 383 15 393 6 17 139 16 246 -2z m129 -681 c148 -24 228 -61 289 -133
22 -28 41 -55 41 -61 0 -7 -27 -11 -72 -12 -105 -2 -296 2 -343 8 -22 2 -49 4
-60 4 -96 -3 -435 105 -435 139 0 5 39 21 88 36 48 14 92 27 97 29 30 10 322
3 395 -10z"/>
</g>
</svg>
